<?xml version="1.0" standalone="no"?>
<!DOCTYPE svg PUBLIC "-//W3C//DTD SVG 20010904//EN"
 "http://www.w3.org/TR/2001/REC-SVG-20010904/DTD/svg10.dtd">
<svg version="1.0" xmlns="http://www.w3.org/2000/svg"
 width="409.000000pt" height="409.000000pt" viewBox="0 0 409.000000 409.000000"
 preserveAspectRatio="xMidYMid meet">

<g transform="translate(0.000000,409.000000) scale(0.100000,-0.100000)"
fill="#000000" stroke="none">
<path d="M600 2763 c-72 -5 -232 -24 -247 -30 -11 -4 -13 -127 -13 -693 0
-647 1 -689 18 -694 24 -7 170 -24 282 -31 188 -13 427 35 560 112 130 77 222
192 277 350 26 74 28 88 28 258 0 161 -2 188 -23 255 -54 172 -162 303 -312
378 -155 78 -353 111 -570 95z m348 -203 c230 -63 352 -243 352 -520 0 -215
-79 -382 -222 -467 -88 -54 -190 -75 -358 -77 -80 0 -153 2 -162 6 -17 7 -18
42 -18 537 0 494 1 531 18 541 31 20 295 7 390 -20z"/>
<path d="M2510 2764 c-84 -7 -233 -26 -247 -31 -11 -4 -13 -127 -13 -693 0
-647 1 -689 18 -694 24 -7 170 -24 282 -31 120 -9 311 15 422 52 207 68 343
203 411 406 30 88 31 99 32 262 0 187 -10 243 -67 362 -63 131 -195 250 -334
303 -125 47 -356 77 -504 64z m350 -204 c168 -48 270 -147 323 -315 32 -101
32 -309 0 -410 -53 -167 -162 -273 -327 -315 -96 -24 -230 -35 -329 -25 l-77
7 0 538 c0 504 1 539 18 544 9 3 85 3 167 1 114 -3 168 -9 225 -25z"/>
<path d="M1744 1561 c-57 -34 -80 -121 -49 -181 63 -121 235 -93 260 42 9 48
-22 116 -64 141 -38 23 -108 22 -147 -2z"/>
<path d="M3652 1560 c-86 -54 -81 -189 9 -240 74 -41 155 -13 190 66 26 57 17
105 -26 152 -27 30 -39 36 -86 39 -42 3 -61 0 -87 -17z"/>
</g>
</svg>
