<svg xmlns="http://www.w3.org/2000/svg" version="1.1" xmlns:xlink="http://www.w3.org/1999/xlink" xmlns:svgjs="http://svgjs.dev/svgjs" width="1000" height="1000" viewBox="0 0 1000 1000"><rect width="1000" height="1000" fill="#ea3c12"></rect><g transform="matrix(0.7,0,0,0.7,149.57575757575756,282.1265587044535)"><svg viewBox="0 0 396 247" data-background-color="#ea3c12" preserveAspectRatio="xMidYMid meet" height="623" width="1000" xmlns="http://www.w3.org/2000/svg" xmlns:xlink="http://www.w3.org/1999/xlink"><g id="tight-bounds" transform="matrix(1,0,0,1,0.2400000000000091,-0.09999999999999432)"><svg viewBox="0 0 395.52 247.2" height="247.2" width="395.52"><g><svg></svg></g><g><svg viewBox="0 0 395.52 247.2" height="247.2" width="395.52"><g><path xmlns="http://www.w3.org/2000/svg" d="M55.039 247.2l26.403-45.732 2.011 0-25.343 43.895h279.3l-25.343-43.895 2.011 0 26.403 45.732zM197.76 0l26.403 45.732-2.01 0-24.393-42.249-24.393 42.249-2.01 0z" fill="#ffbe79" fill-rule="nonzero" stroke="none" stroke-width="1" stroke-linecap="butt" stroke-linejoin="miter" stroke-miterlimit="10" stroke-dasharray="" stroke-dashoffset="0" font-family="none" font-weight="none" font-size="none" text-anchor="none" style="mix-blend-mode: normal" data-fill-palette-color="tertiary"></path></g><g transform="matrix(1,0,0,1,39.1611821830611,67.97999999999999)"><svg viewBox="0 0 317.1976356338778 111.24" height="111.24" width="317.1976356338778"><g><svg viewBox="0 0 395.52 138.70735420860402" height="111.24" width="317.1976356338778"><g transform="matrix(1,0,0,1,0,74.85995725994752)"><svg viewBox="0 0 395.52 63.847396948656495" height="63.847396948656495" width="395.52"><g><svg viewBox="0 0 395.52 63.847396948656495" height="63.847396948656495" width="395.52"><g><svg viewBox="0 0 395.52 36.77684441732764" height="36.77684441732764" width="395.52"><g transform="matrix(1,0,0,1,0,0)"><svg width="395.52" viewBox="1.9500000476837158 -37.54999923706055 409.7200012207031 38.099998474121094" height="36.77684441732764" data-palette-color="#ffbe79"><path d="M5.9-3.5L5.9-33.4 2.15-34.05 2.15-37.15 9.45-37.15Q11.1-37.15 13.9-37.35L13.9-37.35Q14.55-37.4 15.88-37.45 17.2-37.5 18.25-37.5L18.25-37.5Q27.45-37.5 32.02-32.9 36.6-28.3 36.6-19.85L36.6-19.85Q36.6-13.95 34.33-9.35 32.05-4.75 27.85-2.18 23.65 0.4 18.05 0.4L18.05 0.4Q16.6 0.4 13.5 0.2L13.5 0.2Q10.6 0 9.55 0L9.55 0 1.95 0 1.95-3 5.9-3.5ZM13.15-3.35Q14.85-2.9 17.9-2.9L17.9-2.9Q22.9-3 25.75-6.93 28.6-10.85 28.6-18.7L28.6-18.7Q28.6-26.15 25.8-30.23 23-34.3 17.1-34.3L17.1-34.3Q15.85-34.3 14.73-34.15 13.6-34 13.15-33.95L13.15-33.95 13.15-3.35ZM40.2-3.5L51.7-37.35 59.35-37.35 70.9-3.5 73.8-3 73.8 0 59.05 0 59.05-3 62.8-3.5 60.85-10 47.9-10 45.95-3.45 50-3 50 0 37.25 0 37.2-3 40.2-3.5ZM59.85-13.5L55.15-28.9 54.25-32.8 53.3-28.85 48.85-13.5 59.85-13.5ZM75.1 0L75.1-3 79.05-3.5 79.05-33.4 75.3-34.1 75.3-37.15 82.55-37.15Q83.5-37.15 84.65-37.2 85.8-37.25 86.4-37.3L86.4-37.3Q89-37.5 90.7-37.5L90.7-37.5Q95.85-37.5 98.95-36.45 102.05-35.4 103.45-33.25 104.85-31.1 104.85-27.6L104.85-27.6Q104.85-24.15 103-21.2 101.15-18.25 97.65-17.15L97.65-17.15Q99.65-16.3 101.2-14.05 102.75-11.8 104.5-8.2L104.5-8.2Q105.75-5.75 106.42-4.67 107.1-3.6 107.75-3.45L107.75-3.45 109.4-2.95 109.4 0 100.9 0Q100.1 0 99.22-1.63 98.35-3.25 96.95-6.75L96.95-6.75Q95.3-10.85 94.1-13.15 92.9-15.45 91.55-16L91.55-16 86.4-16 86.4-3.5 91-3 91 0 75.1 0ZM91-19.05Q93.85-19.05 95.45-21.1 97.05-23.15 97.05-27.25L97.05-27.25Q97.05-30.9 95.47-32.65 93.9-34.4 90.05-34.4L90.05-34.4Q88.65-34.4 87.67-34.27 86.7-34.15 86.4-34.15L86.4-34.15 86.4-19.15Q87-19.05 89.3-19.05L89.3-19.05 91-19.05ZM111.34-3.5L122.84-37.35 130.49-37.35 142.04-3.5 144.94-3 144.94 0 130.19 0 130.19-3 133.94-3.5 131.99-10 119.04-10 117.09-3.45 121.14-3 121.14 0 108.39 0 108.34-3 111.34-3.5ZM130.99-13.5L126.29-28.9 125.39-32.8 124.44-28.85 119.99-13.5 130.99-13.5ZM150.24-3.5L150.24-33.4 146.29-34.05 146.29-37.15 157.64-37.15 172.54-14.65 175.34-8.95 175.34-33.4 171.04-34.05 171.04-37.15 183.44-37.15 183.44-34.05 179.59-33.4 179.59 0 173.54 0 157.99-23.65 154.49-30.25 154.49-3.5 159.54-3 159.54 0 146.29 0 146.29-3 150.24-3.5ZM202.19-3.5L202.19-33.4 198.44-34.05 198.44-37.15 205.74-37.15Q207.39-37.15 210.19-37.35L210.19-37.35Q210.84-37.4 212.16-37.45 213.49-37.5 214.54-37.5L214.54-37.5Q223.74-37.5 228.31-32.9 232.89-28.3 232.89-19.85L232.89-19.85Q232.89-13.95 230.61-9.35 228.34-4.75 224.14-2.18 219.94 0.4 214.34 0.4L214.34 0.4Q212.89 0.4 209.79 0.2L209.79 0.2Q206.89 0 205.84 0L205.84 0 198.24 0 198.24-3 202.19-3.5ZM209.44-3.35Q211.14-2.9 214.19-2.9L214.19-2.9Q219.19-3 222.04-6.93 224.89-10.85 224.89-18.7L224.89-18.7Q224.89-26.15 222.09-30.23 219.29-34.3 213.39-34.3L213.39-34.3Q212.14-34.3 211.01-34.15 209.89-34 209.44-33.95L209.44-33.95 209.44-3.35ZM236.48-3.5L247.98-37.35 255.63-37.35 267.18-3.5 270.08-3 270.08 0 255.33 0 255.33-3 259.08-3.5 257.13-10 244.18-10 242.23-3.45 246.28-3 246.28 0 233.53 0 233.48-3 236.48-3.5ZM256.13-13.5L251.43-28.9 250.53-32.8 249.58-28.85 245.13-13.5 256.13-13.5ZM288.38 0.55Q279.88 0.55 275.38-4.53 270.88-9.6 270.88-18.4L270.88-18.4Q270.88-24.2 273.26-28.53 275.63-32.85 279.78-35.2 283.93-37.55 289.18-37.55L289.18-37.55Q291.38-37.55 293.43-37.27 295.48-37 298.28-36.55L298.28-36.55Q300.38-36.2 300.58-36.2L300.58-36.2 300.03-25.9 295.43-25.9 293.88-33.05Q293.33-33.6 291.98-33.95 290.63-34.3 288.53-34.3L288.53-34.3Q284.28-34.3 281.71-30.38 279.13-26.45 279.13-19L279.13-19Q279.13-11.8 281.58-7.25 284.03-2.7 288.73-2.7L288.73-2.7Q290.98-2.7 292.21-3.13 293.43-3.55 294.28-4.35L294.28-4.35 296.48-9.5 300.68-9.1 299.68-1.35Q298.63-1.25 297.61-0.98 296.58-0.7 296.33-0.65L296.33-0.65Q294.33-0.1 292.61 0.23 290.88 0.55 288.38 0.55L288.38 0.55ZM308.28-3.5L308.28-33.4 304.58-34.05 304.58-37.15 319.78-37.15 319.78-34.05 315.58-33.4 315.58-20.85 330.78-20.85 330.78-33.4 326.93-34.05 326.93-37.15 341.93-37.15 341.93-34.05 338.13-33.4 338.13-3.5 341.93-3 341.93 0 326.88 0 326.88-3 330.78-3.5 330.78-17.05 315.58-17.05 315.58-3.5 319.78-3 319.78 0 304.48 0 304.48-3 308.28-3.5ZM358.18-3.5L358.18-33.85 351.03-33.6 349.08-22.7 344.88-22.7 345.73-37.15 377.98-37.15 378.58-22.7 374.63-22.7 372.68-33.6 365.63-33.85 365.63-3.5 372.63-3 372.63 0 351.78 0 351.78-3 358.18-3.5ZM385.57-3.5L385.57-33.4 381.57-34.05 381.57-37.15 408.22-37.15 408.87-28.75 405.37-28.75 403.72-33.7 392.92-34.15 392.92-20.7 399.87-20.85 400.67-24.95 403.87-24.95 403.87-12.85 400.67-12.85 399.87-17.15 392.92-17.3 392.92-3.2 405.02-3.8 407.92-10.2 411.67-9.15 410.37 0 381.62 0 381.62-3 385.57-3.5Z" opacity="1" transform="matrix(1,0,0,1,0,0)" fill="#ffbe79" class="undefined-text-0" data-fill-palette-color="primary" id="text-0"></path></svg></g></svg></g><g transform="matrix(1,0,0,1,0,45.45897473999268)"><svg viewBox="0 0 395.52 18.38842220866382" height="18.38842220866382" width="395.52"><g transform="matrix(1,0,0,1,0,0)"><svg width="395.52" viewBox="1.9500000476837158 -41.650001525878906 1098.0400390625 51.05000305175781" height="18.38842220866382" data-palette-color="#ffbe79"><path d="M5.9-3.5L5.9-33.4 2.15-34.05 2.15-37.15 9.45-37.15Q11.1-37.15 13.9-37.35L13.9-37.35Q14.55-37.4 15.88-37.45 17.2-37.5 18.25-37.5L18.25-37.5Q27.45-37.5 32.02-32.9 36.6-28.3 36.6-19.85L36.6-19.85Q36.6-13.95 34.33-9.35 32.05-4.75 27.85-2.18 23.65 0.4 18.05 0.4L18.05 0.4Q16.6 0.4 13.5 0.2L13.5 0.2Q10.6 0 9.55 0L9.55 0 1.95 0 1.95-3 5.9-3.5ZM13.15-3.35Q14.85-2.9 17.9-2.9L17.9-2.9Q22.9-3 25.75-6.93 28.6-10.85 28.6-18.7L28.6-18.7Q28.6-26.15 25.8-30.23 23-34.3 17.1-34.3L17.1-34.3Q15.85-34.3 14.73-34.15 13.6-34 13.15-33.95L13.15-33.95 13.15-3.35ZM61.91-7.8Q61.91-12.35 66.49-14.65 71.06-16.95 78.31-17L78.31-17 78.31-18.15Q78.31-20.2 77.89-21.35 77.46-22.5 76.34-23.08 75.21-23.65 73.06-23.65L73.06-23.65Q70.61-23.65 68.66-23.03 66.71-22.4 64.61-21.4L64.61-21.4 63.06-24.6Q63.81-25.25 65.59-26.15 67.36-27.05 69.81-27.73 72.26-28.4 74.86-28.4L74.86-28.4Q78.71-28.4 80.89-27.4 83.06-26.4 84.01-24.2 84.96-22 84.96-18.3L84.96-18.3 84.96-3 87.66-3 87.66-0.2Q86.66 0.05 84.81 0.3 82.96 0.55 81.56 0.55L81.56 0.55Q79.86 0.55 79.29 0.05 78.71-0.45 78.71-2L78.71-2 78.71-3.35Q77.36-1.85 75.21-0.65 73.06 0.55 70.36 0.55L70.36 0.55Q68.06 0.55 66.14-0.43 64.21-1.4 63.06-3.28 61.91-5.15 61.91-7.8L61.91-7.8ZM73.56-3.6Q74.61-3.6 75.96-4.23 77.31-4.85 78.31-5.75L78.31-5.75 78.31-13.95Q73.81-13.95 71.59-12.43 69.36-10.9 69.36-8.5L69.36-8.5Q69.36-6.1 70.49-4.85 71.61-3.6 73.56-3.6L73.56-3.6ZM112.93 0L112.93-2.95 116.23-3.35 116.23-23.05 113.03-23.95 113.03-27.4 120.78-28.45 120.93-28.45 122.18-27.45 122.18-26.35 122.03-22.3 122.18-22.3Q122.53-23.3 123.83-24.78 125.13-26.25 127.1-27.38 129.08-28.5 131.38-28.5L131.38-28.5Q132.48-28.5 133.28-28.2L133.28-28.2 133.28-20.7Q131.78-21.75 129.63-21.75L129.63-21.75Q125.98-21.75 123.28-19.8L123.28-19.8 123.28-3.4 129.08-2.95 129.08 0 112.93 0ZM158.09-7.8Q158.09-12.35 162.67-14.65 167.24-16.95 174.49-17L174.49-17 174.49-18.15Q174.49-20.2 174.07-21.35 173.64-22.5 172.52-23.08 171.39-23.65 169.24-23.65L169.24-23.65Q166.79-23.65 164.84-23.03 162.89-22.4 160.79-21.4L160.79-21.4 159.24-24.6Q159.99-25.25 161.77-26.15 163.54-27.05 165.99-27.73 168.44-28.4 171.04-28.4L171.04-28.4Q174.89-28.4 177.07-27.4 179.24-26.4 180.19-24.2 181.14-22 181.14-18.3L181.14-18.3 181.14-3 183.84-3 183.84-0.2Q182.84 0.05 180.99 0.3 179.14 0.55 177.74 0.55L177.74 0.55Q176.04 0.55 175.47 0.05 174.89-0.45 174.89-2L174.89-2 174.89-3.35Q173.54-1.85 171.39-0.65 169.24 0.55 166.54 0.55L166.54 0.55Q164.24 0.55 162.32-0.43 160.39-1.4 159.24-3.28 158.09-5.15 158.09-7.8L158.09-7.8ZM169.74-3.6Q170.79-3.6 172.14-4.23 173.49-4.85 174.49-5.75L174.49-5.75 174.49-13.95Q169.99-13.95 167.77-12.43 165.54-10.9 165.54-8.5L165.54-8.5Q165.54-6.1 166.67-4.85 167.79-3.6 169.74-3.6L169.74-3.6ZM211.9-3.45L211.9-23.05 208.7-23.95 208.7-27.4 217-28.45 217.15-28.45 218.4-27.45 218.4-25.5 218.35-24.3Q220.1-25.95 222.9-27.15 225.7-28.35 228.55-28.35L228.55-28.35Q231.6-28.35 233.33-27.23 235.05-26.1 235.8-23.7 236.55-21.3 236.55-17.2L236.55-17.2 236.55-3.4 239.6-3 239.6 0 226.7 0 226.7-3 229.4-3.4 229.4-17.2Q229.4-19.8 229.05-21.28 228.7-22.75 227.78-23.43 226.85-24.1 225.15-24.1L225.15-24.1Q222.3-24.1 219.05-21.65L219.05-21.65 219.05-3.45 222.05-3 222.05 0 209 0 209-3 211.9-3.45ZM299.33 0L299.33-3 302.13-3.45 302.13-23.05 298.93-23.95 298.93-27.4 307.23-28.45 307.83-28.05 308.58-26.4 308.58-24.3Q310.23-25.9 313.31-27.13 316.38-28.35 318.63-28.35L318.63-28.35Q321.33-28.35 323.01-27.45 324.68-26.55 325.53-24.65L325.53-24.65Q327.18-26.15 329.88-27.25 332.58-28.35 335.18-28.35L335.18-28.35Q339.63-28.35 341.48-25.75 343.33-23.15 343.33-17.25L343.33-17.25 343.33-3.45 346.58-3 346.58 0 333.63 0 333.63-3 336.23-3.45 336.23-17.05Q336.23-20.95 335.31-22.53 334.38-24.1 331.78-24.1L331.78-24.1Q330.38-24.1 328.91-23.48 327.43-22.85 326.28-21.95L326.28-21.95Q326.63-20.05 326.63-17.2L326.63-17.2 326.63-3.45 329.73-3 329.73 0 316.68 0 316.68-3 319.43-3.45 319.43-17.2Q319.43-19.8 319.11-21.28 318.78-22.75 317.88-23.43 316.98-24.1 315.28-24.1L315.28-24.1Q313.68-24.1 312.11-23.38 310.53-22.65 309.28-21.65L309.28-21.65 309.28-3.45 312.23-3 312.23 0 299.33 0ZM371.59-7.8Q371.59-12.35 376.17-14.65 380.74-16.95 387.99-17L387.99-17 387.99-18.15Q387.99-20.2 387.57-21.35 387.14-22.5 386.02-23.08 384.89-23.65 382.74-23.65L382.74-23.65Q380.29-23.65 378.34-23.03 376.39-22.4 374.29-21.4L374.29-21.4 372.74-24.6Q373.49-25.25 375.27-26.15 377.04-27.05 379.49-27.73 381.94-28.4 384.54-28.4L384.54-28.4Q388.39-28.4 390.57-27.4 392.74-26.4 393.69-24.2 394.64-22 394.64-18.3L394.64-18.3 394.64-3 397.34-3 397.34-0.2Q396.34 0.05 394.49 0.3 392.64 0.55 391.24 0.55L391.24 0.55Q389.54 0.55 388.97 0.05 388.39-0.45 388.39-2L388.39-2 388.39-3.35Q387.04-1.85 384.89-0.65 382.74 0.55 380.04 0.55L380.04 0.55Q377.74 0.55 375.82-0.43 373.89-1.4 372.74-3.28 371.59-5.15 371.59-7.8L371.59-7.8ZM383.24-3.6Q384.29-3.6 385.64-4.23 386.99-4.85 387.99-5.75L387.99-5.75 387.99-13.95Q383.49-13.95 381.27-12.43 379.04-10.9 379.04-8.5L379.04-8.5Q379.04-6.1 380.17-4.85 381.29-3.6 383.24-3.6L383.24-3.6ZM424.91-3.45L424.91-36.55 421.31-37.2 421.31-39.9 430.51-41 430.61-41 431.96-40.05 431.96-16.3 431.81-13.65 442.01-24.35 438.31-24.9 438.31-27.75 451.36-27.75 451.36-24.9 447.31-24.25 441.16-18.35 449.91-3.4 452.66-3 452.66 0 439.46 0 439.46-3 442.01-3.45 436.31-14 431.81-9.45 431.91-6.9 431.91-3.45 435.06-3 435.06 0 422.01 0 422.01-3 424.91-3.45ZM488.82 0.55Q482.22 0.55 479-3.33 475.77-7.2 475.77-13.9L475.77-13.9Q475.77-18.4 477.45-21.7 479.12-25 482.17-26.75 485.22-28.5 489.22-28.5L489.22-28.5Q494.22-28.5 496.92-25.88 499.62-23.25 499.72-18.4L499.72-18.4Q499.72-15.1 499.32-13.5L499.32-13.5 483.07-13.5Q483.27-8.95 485.22-6.43 487.17-3.9 490.77-3.9L490.77-3.9Q492.72-3.9 494.8-4.55 496.87-5.2 498.07-6.1L498.07-6.1 499.32-3.35Q497.97-1.9 494.95-0.68 491.92 0.55 488.82 0.55L488.82 0.55ZM483.07-16.5L492.72-16.5Q492.82-17.9 492.82-18.65L492.82-18.65Q492.82-25.3 488.37-25.3L488.37-25.3Q485.92-25.3 484.57-23.35 483.22-21.4 483.07-16.5L483.07-16.5ZM530.28-8.05L531.43-4.1Q531.83-3.5 533.26-2.98 534.68-2.45 536.13-2.45L536.13-2.45Q538.48-2.45 539.66-3.43 540.83-4.4 540.83-6L540.83-6Q540.83-7.65 539.38-8.68 537.93-9.7 534.48-11.2L534.48-11.2 533.08-11.8Q529.63-13.25 527.93-15.3 526.23-17.35 526.23-20.6L526.23-20.6Q526.23-22.85 527.58-24.63 528.93-26.4 531.38-27.4 533.83-28.4 537.03-28.4L537.03-28.4Q539.38-28.4 541.06-28.1 542.73-27.8 544.58-27.3L544.58-27.3Q545.58-26.95 546.08-26.9L546.08-26.9 546.08-20.35 542.13-20.35 540.98-24.15Q540.68-24.65 539.63-25.05 538.58-25.45 537.23-25.45L537.23-25.45Q535.18-25.45 533.96-24.58 532.73-23.7 532.73-22.15L532.73-22.15Q532.73-20.75 533.58-19.83 534.43-18.9 535.43-18.4 536.43-17.9 539.13-16.75L539.13-16.75Q541.83-15.6 543.61-14.55 545.38-13.5 546.56-11.83 547.73-10.15 547.73-7.75L547.73-7.75Q547.73-4.05 544.83-1.75 541.93 0.55 536.48 0.55L536.48 0.55Q533.93 0.55 531.91 0.1 529.88-0.35 527.23-1.1L527.23-1.1 526.13-1.45 526.13-8.05 530.28-8.05ZM607.46-7.8Q607.46-12.35 612.04-14.65 616.61-16.95 623.86-17L623.86-17 623.86-18.15Q623.86-20.2 623.44-21.35 623.01-22.5 621.89-23.08 620.76-23.65 618.61-23.65L618.61-23.65Q616.16-23.65 614.21-23.03 612.26-22.4 610.16-21.4L610.16-21.4 608.61-24.6Q609.36-25.25 611.14-26.15 612.91-27.05 615.36-27.73 617.81-28.4 620.41-28.4L620.41-28.4Q624.26-28.4 626.44-27.4 628.61-26.4 629.56-24.2 630.51-22 630.51-18.3L630.51-18.3 630.51-3 633.21-3 633.21-0.2Q632.21 0.05 630.36 0.3 628.51 0.55 627.11 0.55L627.11 0.55Q625.41 0.55 624.84 0.05 624.26-0.45 624.26-2L624.26-2 624.26-3.35Q622.91-1.85 620.76-0.65 618.61 0.55 615.91 0.55L615.91 0.55Q613.61 0.55 611.69-0.43 609.76-1.4 608.61-3.28 607.46-5.15 607.46-7.8L607.46-7.8ZM619.11-3.6Q620.16-3.6 621.51-4.23 622.86-4.85 623.86-5.75L623.86-5.75 623.86-13.95Q619.36-13.95 617.14-12.43 614.91-10.9 614.91-8.5L614.91-8.5Q614.91-6.1 616.04-4.85 617.16-3.6 619.11-3.6L619.11-3.6ZM661.37-3.45L661.37-36.55 657.67-37.2 657.67-39.9 666.92-41 667.02-41 668.37-40.05 668.37-3.4 672.02-3 672.02 0 657.87 0 657.87-3 661.37-3.45ZM700.54-3.45L700.54-36.55 696.84-37.2 696.84-39.9 706.09-41 706.19-41 707.54-40.05 707.54-3.4 711.19-3 711.19 0 697.04 0 697.04-3 700.54-3.45ZM774.46-3.5L774.46-33.4 770.36-34.05 770.36-37.15 797.96-37.15 798.46-28.1 794.46-28.1 792.61-33.6 781.81-34.15 781.81-20 789.26-20.15 790.21-24.55 793.41-24.55 793.41-11.85 790.26-11.85 789.26-16.35 781.81-16.55 781.81-3.5 789.46-3 789.46 0 770.61 0 770.61-3 774.46-3.5ZM875.09 0.4Q867.49 0.4 863.79-3.4 860.09-7.2 860.09-15.35L860.09-15.35 860.09-33.4 856.79-34.05 856.79-37.15 871.89-37.15 871.89-34.05 867.64-33.35 867.64-14.7Q867.64-2.8 876.09-2.8L876.09-2.8Q880.24-2.8 882.24-5.88 884.24-8.95 884.24-14.5L884.24-14.5 884.24-33.35 879.94-34.05 879.94-37.15 892.44-37.15 892.44-34.05 889.04-33.4 889.04-14.9Q889.04-7.1 885.27-3.35 881.49 0.4 875.09 0.4L875.09 0.4ZM918-16.7Q918-23.6 920.48-28.9 922.95-34.2 926-37.33 929.05-40.45 931.1-41.6L931.1-41.6 933.65-39.7Q932.1-38.75 929.98-35.83 927.85-32.9 926.18-27.9 924.5-22.9 924.5-16.35L924.5-16.35Q924.5-9.8 926.15-4.75 927.8 0.3 929.95 3.35 932.1 6.4 933.7 7.5L933.7 7.5 931.1 9.4Q926.85 6.85 922.43 0.73 918-5.4 918-16.7L918-16.7ZM961.52-3.5L973.02-37.35 980.67-37.35 992.22-3.5 995.12-3 995.12 0 980.37 0 980.37-3 984.12-3.5 982.17-10 969.22-10 967.27-3.45 971.32-3 971.32 0 958.57 0 958.52-3 961.52-3.5ZM981.17-13.5L976.47-28.9 975.57-32.8 974.62-28.85 970.17-13.5 981.17-13.5ZM1035.83-15.55Q1035.83-8.65 1033.36-3.35 1030.88 1.95 1027.83 5.08 1024.78 8.2 1022.73 9.35L1022.73 9.35 1020.18 7.45Q1021.73 6.5 1023.86 3.58 1025.98 0.65 1027.66-4.38 1029.33-9.4 1029.33-16L1029.33-16Q1029.33-22.5 1027.68-27.55 1026.03-32.6 1023.91-35.63 1021.78-38.65 1020.18-39.75L1020.18-39.75 1022.73-41.65Q1026.98-39.1 1031.41-32.98 1035.83-26.85 1035.83-15.55L1035.83-15.55ZM1066.79-3.5L1066.79-33.4 1062.84-34.05 1062.84-37.15 1074.19-37.15 1089.09-14.65 1091.89-8.95 1091.89-33.4 1087.59-34.05 1087.59-37.15 1099.99-37.15 1099.99-34.05 1096.14-33.4 1096.14 0 1090.09 0 1074.54-23.65 1071.04-30.25 1071.04-3.5 1076.09-3 1076.09 0 1062.84 0 1062.84-3 1066.79-3.5Z" opacity="1" transform="matrix(1,0,0,1,0,0)" fill="#ffbe79" class="undefined-text-1" data-fill-palette-color="secondary" id="text-1"></path></svg></g></svg></g></svg></g></svg></g><g transform="matrix(1,0,0,1,164.67108653135875,0)"><svg viewBox="0 0 66.17782693728248 66.17782693728248" height="66.17782693728248" width="66.17782693728248"><g><svg></svg></g><g id="icon-0"><svg viewBox="0 0 66.17782693728248 66.17782693728248" height="66.17782693728248" width="66.17782693728248"><g><path xmlns="http://www.w3.org/2000/svg" d="M19.853 66.178c-10.965 0-19.853-8.889-19.853-19.854v-26.471c0-10.965 8.889-19.853 19.853-19.853h26.471c10.965 0 19.853 8.889 19.854 19.853v26.471c0 10.965-8.889 19.853-19.854 19.854z" fill="#ffbe79" fill-rule="nonzero" stroke="none" stroke-width="1" stroke-linecap="butt" stroke-linejoin="miter" stroke-miterlimit="10" stroke-dasharray="" stroke-dashoffset="0" font-family="none" font-weight="none" font-size="none" text-anchor="none" style="mix-blend-mode: normal" data-fill-palette-color="accent"></path></g><g transform="matrix(1,0,0,1,22.69668982061949,13.235565387456496)"><svg viewBox="0 0 20.7844472960435 39.70669616236948" height="39.70669616236948" width="20.7844472960435"><g><svg xmlns="http://www.w3.org/2000/svg" xmlns:xlink="http://www.w3.org/1999/xlink" version="1.1" x="0" y="0" viewBox="19.682355880737305 3.5 35.572967529296875 67.95874786376953" enable-background="new 0 0 75 75" xml:space="preserve" height="39.70669616236948" width="20.7844472960435" class="icon-s-0" data-fill-palette-color="quaternary" id="s-0"><path d="M21.2 59.5c-1.1-2.6-4.2-12.2 3.8-24.7C36 18 31.7 3.5 31.7 3.5S46 8.8 41.7 37.5c-1 6.5-0.9 9 2 9.4 5 0.7 3.1-19.7 3.1-19.7s3.9 2 6.8 12.1c1.5 5.3 1.8 9.5 1.6 12.5-1 18.1-16.5 19.6-16.5 19.6S26.9 73 21.2 59.5z" fill="#ea3c12" data-fill-palette-color="quaternary"></path></svg></g></svg></g></svg></g></svg></g><g></g></svg></g></svg></g></svg></g><defs></defs></svg><rect width="395.52" height="247.2" fill="none" stroke="none" visibility="hidden"></rect></g></svg></g></svg>